<?xml version="1.0" encoding="UTF-8"?>
<svg width="700pt" height="700pt" version="1.1" viewBox="0 0 700 700" xmlns="http://www.w3.org/2000/svg" xmlns:xlink="http://www.w3.org/1999/xlink">
 
 <g>
  <path d="m106.4 358.4c16.801 0 28.559 4.4805 42.559 10.078 19.039 7.2812 44.238 17.359 97.441 19.602-3.3594-5.6016-5.0391-11.762-5.0391-19.039 0-16.801 11.762-31.359 27.441-35.281-3.9219-5.6016-6.1602-12.879-6.1602-20.719 0-11.199 5.0391-21.281 13.441-28-7.8398-6.7188-13.441-16.801-13.441-28 0-5.6016 1.1211-10.641 3.3594-15.121l-12.32 2.8008c-20.719 30.238-46.48 34.16-58.801 34.16-3.9219 0-6.7188-0.55859-6.7188-0.55859-4.4805-0.55859-7.2812-5.0391-6.7188-9.5195 0.55859-4.4805 5.0391-7.8398 9.5195-6.7188 1.1211 0 29.121 4.4805 50.398-29.121 1.1211-1.6797 2.8008-3.3594 5.0391-3.3594l49.84-11.199c3.9219-1.1211 7.8398 1.1211 9.5195 4.4805 16.238 35.281 32.48 30.801 52.641 25.199l-21.281-39.762s0-0.55859-0.55859-0.55859c-1.1211-2.2383-1.6797-5.0391-2.8008-8.3984-3.3594-9.5195-7.8398-22.398-16.238-26.32-7.8398-3.9219-16.238-2.2383-29.68 0.55859-6.7188 1.1211-14 2.8008-22.398 3.9219-16.801 3.3594-34.16 10.078-52.641 17.359-30.801 12.316-64.961 25.758-105.84 27.996-4.4805 0-8.3984-3.3594-8.9609-7.8398 0-4.4805 3.3594-8.3984 7.8398-8.9609 38.078-1.6797 70-14.559 100.8-26.32 19.602-7.8398 37.52-15.121 56-18.48h0.55859c7.8398-1.1211 15.121-2.2383 21.281-3.3594 14.559-2.8008 27.441-5.6016 40.32 0.55859 3.9219 1.6797 7.2812 4.4805 10.078 7.8398h51.52c20.16 0 36.398 16.238 36.398 36.398 0 7.8398-2.2383 15.121-6.7188 20.719 15.121 4.4805 26.879 18.48 26.879 34.719 0 16.801-11.762 31.359-27.441 35.281 3.9219 5.6016 6.1602 12.879 6.1602 20.719 0 16.801-11.762 31.359-27.441 35.281 3.9219 5.6016 6.1602 12.879 6.1602 20.719 0 20.16-16.238 36.398-36.398 36.398h-93.52c-73.359 0-104.72-12.32-127.68-21.281-13.438-6.7109-22.957-10.07-36.398-10.07-4.4766 0-8.3984-3.918-8.3984-8.3984s3.9219-8.4023 8.3984-8.4023zm280-175.84h-41.441c1.6797 3.9219 3.3594 8.3984 4.4805 11.762 1.1211 2.8008 1.6797 5.0391 2.2383 6.7188l11.199 20.719h23.52c10.641 0 19.602-8.9609 19.602-19.602-0.55469-10.637-8.957-19.598-19.598-19.598zm39.203 75.602c0-10.641-8.9609-19.602-19.602-19.602h-34.719l6.1602 11.199c1.1211 2.2383 1.1211 5.0391 0 7.2812-1.1211 2.2383-3.3594 3.9219-5.6016 4.4805-2.8008 0.55859-5.6016 1.6797-8.9609 2.2383-20.16 5.6016-46.48 13.441-68.879-25.762-8.9609 1.6797-15.68 9.5195-15.68 19.039 0 10.641 8.9609 19.602 19.602 19.602 1.1211 0 1.6797 0 2.8008 0.55859h105.28c10.637 0.003907 19.598-8.3945 19.598-19.035zm-21.281 55.441c0-10.641-8.3984-19.039-19.039-19.602h-89.602c-9.5195 1.1211-16.801 9.5195-16.801 19.039 0 10.641 8.9609 19.602 19.602 19.602h86.801c10.641 0.55859 19.039-8.4023 19.039-19.039zm-21.281 56c0-10.641-8.9609-19.602-19.602-19.602h-86.238c-10.641 0-19.602 8.9609-19.602 19.602 0 10.078 7.8398 18.48 17.922 19.039h88.48c10.641 0 19.039-8.4023 19.039-19.039z"/>
  <use x="70" y="644" xlink:href="#v"/>
  <use x="90.550781" y="644" xlink:href="#c"/>
  <use x="104.359375" y="644" xlink:href="#a"/>
  <use x="123.347656" y="644" xlink:href="#l"/>
  <use x="142.242188" y="644" xlink:href="#b"/>
  <use x="155.628906" y="644" xlink:href="#a"/>
  <use x="174.617188" y="644" xlink:href="#k"/>
  <use x="204.410156" y="644" xlink:href="#j"/>
  <use x="224.453125" y="644" xlink:href="#i"/>
  <use x="252.453125" y="644" xlink:href="#e"/>
  <use x="271.550781" y="644" xlink:href="#u"/>
  <use x="281.148438" y="644" xlink:href="#h"/>
  <use x="290.746094" y="644" xlink:href="#h"/>
  <use x="310.09375" y="644" xlink:href="#e"/>
  <use x="329.191406" y="644" xlink:href="#a"/>
  <use x="348.179688" y="644" xlink:href="#a"/>
  <use x="367.171875" y="644" xlink:href="#g"/>
  <use x="387.105469" y="644" xlink:href="#f"/>
  <use x="403.703125" y="644" xlink:href="#t"/>
  <use x="70" y="672" xlink:href="#s"/>
  <use x="82.183594" y="672" xlink:href="#c"/>
  <use x="95.992188" y="672" xlink:href="#d"/>
  <use x="115.226562" y="672" xlink:href="#r"/>
  <use x="154.152344" y="672" xlink:href="#b"/>
  <use x="167.535156" y="672" xlink:href="#q"/>
  <use x="187.46875" y="672" xlink:href="#a"/>
  <use x="216.207031" y="672" xlink:href="#p"/>
  <use x="239.640625" y="672" xlink:href="#d"/>
  <use x="258.878906" y="672" xlink:href="#o"/>
  <use x="278.8125" y="672" xlink:href="#g"/>
  <use x="308.492188" y="672" xlink:href="#n"/>
  <use x="329.015625" y="672" xlink:href="#c"/>
  <use x="342.820312" y="672" xlink:href="#d"/>
  <use x="362.058594" y="672" xlink:href="#m"/>
  <use x="371.65625" y="672" xlink:href="#a"/>
  <use x="390.648438" y="672" xlink:href="#f"/>
  <use x="407.242188" y="672" xlink:href="#b"/>
 </g>
</svg>
