<?xml version="1.0" encoding="UTF-8"?>
<svg width="700pt" height="700pt" version="1.1" viewBox="0 0 700 700" xmlns="http://www.w3.org/2000/svg" xmlns:xlink="http://www.w3.org/1999/xlink">
 <g>
  <path d="m110.32 345.52c85.68 36.398 227.92-34.16 229.04-34.719l1.6797-0.55859 61.039-4.4805c24.078-3.3594 36.961-17.359 36.961-29.121 0-10.641-1.6797-12.879-2.2383-12.879-1.6797-1.6797-11.199-0.55859-16.801 0l-85.68 5.6016c-19.039 2.8008-70.559 13.441-85.68 29.68-3.3594 3.3594-8.3984 3.3594-11.762 0.55859-3.3594-3.3594-3.3594-8.3984-0.55859-11.762 21.84-23.52 88.48-33.602 95.762-34.719l86.238-5.6016c11.199-1.1211 21.84-2.8008 29.121 3.9219l1.6797 1.6797 93.52-10.078h1.1211c8.9609 0 41.441-7.8398 41.441-30.238 0-3.9219 0-6.1602-0.55859-7.2812-2.8008-0.55859-10.078-0.55859-12.879-0.55859l-186.48 5.6016h-31.922c-70 0-133.28 18.48-179.2 31.359-29.121 8.3984-51.52 15.121-67.762 15.121-4.4805-1.125-8.4023-5.0469-8.4023-9.5273s3.9219-8.3984 8.3984-8.3984c14 0 35.84-6.1602 63.281-14 47.039-13.441 111.44-32.48 183.68-32.48h31.922l186.48-5.6016c21.84 0 30.238 2.2383 30.238 24.641 0 32.48-38.078 47.039-58.238 47.039l-88.48 10.082c0 2.8008 0.55859 5.0391 0.55859 7.8398 0 19.039-17.922 40.879-51.52 45.922l-58.801 3.9219c-12.879 6.1602-98 46.48-176.96 46.48-22.961 0-45.359-3.3594-64.961-11.762-4.4805-1.6797-6.1602-6.7188-4.4805-11.199 1.6836-3.9258 6.7227-6.1641 11.203-4.4844z"/>
  <use x="70" y="644" xlink:href="#v"/>
  <use x="90.550781" y="644" xlink:href="#c"/>
  <use x="104.359375" y="644" xlink:href="#a"/>
  <use x="123.347656" y="644" xlink:href="#l"/>
  <use x="142.242188" y="644" xlink:href="#b"/>
  <use x="155.628906" y="644" xlink:href="#a"/>
  <use x="174.617188" y="644" xlink:href="#k"/>
  <use x="204.410156" y="644" xlink:href="#j"/>
  <use x="224.453125" y="644" xlink:href="#i"/>
  <use x="252.453125" y="644" xlink:href="#e"/>
  <use x="271.550781" y="644" xlink:href="#u"/>
  <use x="281.148438" y="644" xlink:href="#h"/>
  <use x="290.746094" y="644" xlink:href="#h"/>
  <use x="310.09375" y="644" xlink:href="#e"/>
  <use x="329.191406" y="644" xlink:href="#a"/>
  <use x="348.179688" y="644" xlink:href="#a"/>
  <use x="367.171875" y="644" xlink:href="#g"/>
  <use x="387.105469" y="644" xlink:href="#f"/>
  <use x="403.703125" y="644" xlink:href="#t"/>
  <use x="70" y="672" xlink:href="#s"/>
  <use x="82.183594" y="672" xlink:href="#c"/>
  <use x="95.992188" y="672" xlink:href="#d"/>
  <use x="115.226562" y="672" xlink:href="#r"/>
  <use x="154.152344" y="672" xlink:href="#b"/>
  <use x="167.535156" y="672" xlink:href="#q"/>
  <use x="187.46875" y="672" xlink:href="#a"/>
  <use x="216.207031" y="672" xlink:href="#p"/>
  <use x="239.640625" y="672" xlink:href="#d"/>
  <use x="258.878906" y="672" xlink:href="#o"/>
  <use x="278.8125" y="672" xlink:href="#g"/>
  <use x="308.492188" y="672" xlink:href="#n"/>
  <use x="329.015625" y="672" xlink:href="#c"/>
  <use x="342.820312" y="672" xlink:href="#d"/>
  <use x="362.058594" y="672" xlink:href="#m"/>
  <use x="371.65625" y="672" xlink:href="#a"/>
  <use x="390.648438" y="672" xlink:href="#f"/>
  <use x="407.242188" y="672" xlink:href="#b"/>
 </g>
</svg>
