<?xml version="1.0" encoding="UTF-8"?>
<svg width="700pt" height="700pt" version="1.1" viewBox="0 0 700 700" xmlns="http://www.w3.org/2000/svg" xmlns:xlink="http://www.w3.org/1999/xlink">
 
 <g>
  <path d="m363.44 178.08 156.24-35.84c8.3984-2.2383 17.359-1.1211 24.641 3.3594 7.8398 4.4805 13.441 11.762 15.68 20.16 4.4805 17.922-5.6016 35.84-22.961 40.879l-135.52 38.078 151.2 28c9.5195 1.6797 17.922 6.7188 23.52 15.121 5.6016 7.8398 7.8398 17.359 6.1602 26.879-1.6797 9.5195-6.7188 17.922-15.121 23.52-7.8398 5.6016-17.359 7.8398-26.879 6.1602l-120.4-21.281v4.4805c0 16.801-11.762 31.359-27.441 34.719 3.9219 5.6016 6.1602 12.879 6.1602 20.16 0 20.16-16.238 35.84-35.84 35.84h-92.961c-72.801 0-104.16-12.32-127.12-21.281-12.879-5.0391-22.398-8.9609-35.84-8.9609-4.4805 0-8.3984-3.9219-8.3984-8.3984 0-4.4805 3.9219-8.3984 8.3984-8.3984 16.801 0 28.559 4.4805 42 10.078 19.039 7.2812 44.238 17.359 96.32 19.602-3.3594-5.6016-5.0391-11.762-5.0391-18.48 0-16.801 11.762-31.359 27.441-34.719-3.9219-5.6016-6.1602-12.879-6.1602-20.16 0-20.16 16.238-35.84 35.84-35.84h47.602c-14.559-10.078-22.398-27.441-29.121-43.121l-38.641-12.32c-8.3984 42-63.281 59.359-65.52 59.922-4.4805 1.1211-8.9609-1.1211-10.641-5.6016-1.1211-4.4805 1.1211-8.9609 5.6016-10.641 0.55859 0 54.879-16.801 54.879-54.879 0-2.8008 1.1211-5.0391 3.3594-6.7188 2.2383-1.6797 5.0391-2.2383 7.2812-1.1211l52.078 16.801c2.2383 0.55859 4.4805 2.2383 5.0391 4.4805 15.121 34.164 26.324 50.406 57.121 41.445l-21.281-53.762c-3.3555-7.8398-7.8359-13.438-15.676-19.039l-53.762-24.641c-9.5195-2.8008-13.441-2.8008-24.641-2.8008h-1.1211c-59.922 1.6797-91.281 15.68-116.48 26.879-16.238 7.2812-30.238 13.441-47.039 13.441-4.4805 0-8.3984-3.9219-8.3984-8.3984 0-4.4805 3.9219-8.3984 8.3984-8.3984 13.441 0 24.641-5.0391 40.32-11.762 25.199-11.199 59.359-26.32 122.64-28.559h1.6797c12.32 0 17.922 0 30.238 3.9219 0.55859 0 0.55859 0 1.1211 0.55859l31.359 14.559h0.55859zm-87.363 185.36c-10.641 0-19.039 8.3984-19.039 19.039 0 10.078 7.8398 18.48 17.359 19.039h87.922c10.641 0 19.039-8.3984 19.039-19.039s-8.3984-19.039-19.039-19.039zm21.281-55.441c-10.641 0-19.039 8.3984-19.039 19.039 0 10.641 8.3984 19.039 19.039 19.039h86.242c10.641 0 19.039-8.3984 19.039-19.039 0-10.641-8.4023-19.039-19.039-19.039zm107.52-26.32c0.55859 2.2383 0.55859 4.4805 0 6.7188-1.1211 2.2383-2.8008 3.9219-4.4805 4.4805-1.1211 0.55859-2.2383 0.55859-2.8008 1.1211 5.6016 2.2383 10.078 6.1602 14 10.641l131.04 22.961c5.0391 1.1211 10.078 0 14.559-3.3594 4.4805-2.8008 7.2812-7.2812 7.8398-12.32 1.1211-5.0391 0-10.078-3.3594-14.559-2.8008-4.4805-7.2812-7.2812-12.32-7.8398l-152.32-28zm-24.078-61.602 4.4805 11.762 146.72-41.441c8.3984-2.2383 14-11.762 11.199-20.16-1.1211-4.4805-3.9219-7.8398-7.8398-10.078-3.9219-2.2383-7.8398-2.8008-12.32-1.6797l-156.8 35.84h-1.1211l-3.918 1.1211c8.9609 6.7188 15.121 14.559 19.602 24.637z"/>
  <use x="70" y="644" xlink:href="#v"/>
  <use x="90.550781" y="644" xlink:href="#c"/>
  <use x="104.359375" y="644" xlink:href="#a"/>
  <use x="123.347656" y="644" xlink:href="#l"/>
  <use x="142.242188" y="644" xlink:href="#b"/>
  <use x="155.628906" y="644" xlink:href="#a"/>
  <use x="174.617188" y="644" xlink:href="#k"/>
  <use x="204.410156" y="644" xlink:href="#j"/>
  <use x="224.453125" y="644" xlink:href="#i"/>
  <use x="252.453125" y="644" xlink:href="#e"/>
  <use x="271.550781" y="644" xlink:href="#u"/>
  <use x="281.148438" y="644" xlink:href="#h"/>
  <use x="290.746094" y="644" xlink:href="#h"/>
  <use x="310.09375" y="644" xlink:href="#e"/>
  <use x="329.191406" y="644" xlink:href="#a"/>
  <use x="348.179688" y="644" xlink:href="#a"/>
  <use x="367.171875" y="644" xlink:href="#g"/>
  <use x="387.105469" y="644" xlink:href="#f"/>
  <use x="403.703125" y="644" xlink:href="#t"/>
  <use x="70" y="672" xlink:href="#s"/>
  <use x="82.183594" y="672" xlink:href="#c"/>
  <use x="95.992188" y="672" xlink:href="#d"/>
  <use x="115.226562" y="672" xlink:href="#r"/>
  <use x="154.152344" y="672" xlink:href="#b"/>
  <use x="167.535156" y="672" xlink:href="#q"/>
  <use x="187.46875" y="672" xlink:href="#a"/>
  <use x="216.207031" y="672" xlink:href="#p"/>
  <use x="239.640625" y="672" xlink:href="#d"/>
  <use x="258.878906" y="672" xlink:href="#o"/>
  <use x="278.8125" y="672" xlink:href="#g"/>
  <use x="308.492188" y="672" xlink:href="#n"/>
  <use x="329.015625" y="672" xlink:href="#c"/>
  <use x="342.820312" y="672" xlink:href="#d"/>
  <use x="362.058594" y="672" xlink:href="#m"/>
  <use x="371.65625" y="672" xlink:href="#a"/>
  <use x="390.648438" y="672" xlink:href="#f"/>
  <use x="407.242188" y="672" xlink:href="#b"/>
 </g>
</svg>
